<svg width="34" height="34" viewBox="0 0 34 34" fill="none" xmlns="http://www.w3.org/2000/svg">
<path d="M10.9997 25.3333L16.9997 19.3333L22.9997 25.3333L25.333 23L19.333 17L25.333 11L22.9997 8.66665L16.9997 14.6666L10.9997 8.66665L8.66634 11L14.6663 17L8.66634 23L10.9997 25.3333ZM16.9997 33.6666C14.6941 33.6666 12.5275 33.2291 10.4997 32.3541C8.4719 31.4791 6.70801 30.2916 5.20801 28.7916C3.70801 27.2916 2.52051 25.5278 1.64551 23.5C0.770508 21.4722 0.333008 19.3055 0.333008 17C0.333008 14.6944 0.770508 12.5278 1.64551 10.5C2.52051 8.4722 3.70801 6.70831 5.20801 5.20831C6.70801 3.70831 8.4719 2.52081 10.4997 1.64581C12.5275 0.770813 14.6941 0.333313 16.9997 0.333313C19.3052 0.333313 21.4719 0.770813 23.4997 1.64581C25.5275 2.52081 27.2913 3.70831 28.7913 5.20831C30.2913 6.70831 31.4788 8.4722 32.3538 10.5C33.2288 12.5278 33.6663 14.6944 33.6663 17C33.6663 19.3055 33.2288 21.4722 32.3538 23.5C31.4788 25.5278 30.2913 27.2916 28.7913 28.7916C27.2913 30.2916 25.5275 31.4791 23.4997 32.3541C21.4719 33.2291 19.3052 33.6666 16.9997 33.6666ZM16.9997 30.3333C20.7219 30.3333 23.8747 29.0416 26.458 26.4583C29.0413 23.875 30.333 20.7222 30.333 17C30.333 13.2778 29.0413 10.125 26.458 7.54165C23.8747 4.95831 20.7219 3.66665 16.9997 3.66665C13.2775 3.66665 10.1247 4.95831 7.54134 7.54165C4.95801 10.125 3.66634 13.2778 3.66634 17C3.66634 20.7222 4.95801 23.875 7.54134 26.4583C10.1247 29.0416 13.2775 30.3333 16.9997 30.3333Z" fill="#1D1B20"/>
</svg>
