<svg width="34" height="34" viewBox="0 0 34 34" fill="none" xmlns="http://www.w3.org/2000/svg">
<path d="M12.4167 33.6666L11.75 28.3333C11.3889 28.1944 11.0486 28.0278 10.7292 27.8333C10.4097 27.6389 10.0972 27.4305 9.79167 27.2083L4.83333 29.2916L0.25 21.375L4.54167 18.125C4.51389 17.9305 4.5 17.743 4.5 17.5625V16.4375C4.5 16.2569 4.51389 16.0694 4.54167 15.875L0.25 12.625L4.83333 4.70831L9.79167 6.79165C10.0972 6.56942 10.4167 6.36109 10.75 6.16665C11.0833 5.9722 11.4167 5.80554 11.75 5.66665L12.4167 0.333313H21.5833L22.25 5.66665C22.6111 5.80554 22.9514 5.9722 23.2708 6.16665C23.5903 6.36109 23.9028 6.56942 24.2083 6.79165L29.1667 4.70831L33.75 12.625L29.4583 15.875C29.4861 16.0694 29.5 16.2569 29.5 16.4375V17.5625C29.5 17.743 29.4722 17.9305 29.4167 18.125L33.7083 21.375L29.125 29.2916L24.2083 27.2083C23.9028 27.4305 23.5833 27.6389 23.25 27.8333C22.9167 28.0278 22.5833 28.1944 22.25 28.3333L21.5833 33.6666H12.4167ZM15.3333 30.3333H18.625L19.2083 25.9166C20.0694 25.6944 20.8681 25.368 21.6042 24.9375C22.3403 24.5069 23.0139 23.9861 23.625 23.375L27.75 25.0833L29.375 22.25L25.7917 19.5416C25.9306 19.1528 26.0278 18.743 26.0833 18.3125C26.1389 17.8819 26.1667 17.4444 26.1667 17C26.1667 16.5555 26.1389 16.118 26.0833 15.6875C26.0278 15.2569 25.9306 14.8472 25.7917 14.4583L29.375 11.75L27.75 8.91665L23.625 10.6666C23.0139 10.0278 22.3403 9.49304 21.6042 9.06248C20.8681 8.63192 20.0694 8.30554 19.2083 8.08331L18.6667 3.66665H15.375L14.7917 8.08331C13.9306 8.30554 13.1319 8.63192 12.3958 9.06248C11.6597 9.49304 10.9861 10.0139 10.375 10.625L6.25 8.91665L4.625 11.75L8.20833 14.4166C8.06944 14.8333 7.97222 15.25 7.91667 15.6666C7.86111 16.0833 7.83333 16.5278 7.83333 17C7.83333 17.4444 7.86111 17.875 7.91667 18.2916C7.97222 18.7083 8.06944 19.125 8.20833 19.5416L4.625 22.25L6.25 25.0833L10.375 23.3333C10.9861 23.9722 11.6597 24.5069 12.3958 24.9375C13.1319 25.368 13.9306 25.6944 14.7917 25.9166L15.3333 30.3333ZM17.0833 22.8333C18.6944 22.8333 20.0694 22.2639 21.2083 21.125C22.3472 19.9861 22.9167 18.6111 22.9167 17C22.9167 15.3889 22.3472 14.0139 21.2083 12.875C20.0694 11.7361 18.6944 11.1666 17.0833 11.1666C15.4444 11.1666 14.0625 11.7361 12.9375 12.875C11.8125 14.0139 11.25 15.3889 11.25 17C11.25 18.6111 11.8125 19.9861 12.9375 21.125C14.0625 22.2639 15.4444 22.8333 17.0833 22.8333Z" fill="#1D1B20"/>
</svg>
