<svg width="30" height="34" viewBox="0 0 30 34" fill="none" xmlns="http://www.w3.org/2000/svg">
<path d="M10 24.5C8.83333 24.5 7.84722 24.0972 7.04167 23.2916C6.23611 22.4861 5.83333 21.5 5.83333 20.3333C5.83333 19.1666 6.23611 18.1805 7.04167 17.375C7.84722 16.5694 8.83333 16.1666 10 16.1666C11.1667 16.1666 12.1528 16.5694 12.9583 17.375C13.7639 18.1805 14.1667 19.1666 14.1667 20.3333C14.1667 21.5 13.7639 22.4861 12.9583 23.2916C12.1528 24.0972 11.1667 24.5 10 24.5ZM3.33333 33.6666C2.41667 33.6666 1.63194 33.3403 0.979167 32.6875C0.326389 32.0347 0 31.25 0 30.3333V6.99998C0 6.08331 0.326389 5.29859 0.979167 4.64581C1.63194 3.99304 2.41667 3.66665 3.33333 3.66665H5V0.333313H8.33333V3.66665H21.6667V0.333313H25V3.66665H26.6667C27.5833 3.66665 28.3681 3.99304 29.0208 4.64581C29.6736 5.29859 30 6.08331 30 6.99998V30.3333C30 31.25 29.6736 32.0347 29.0208 32.6875C28.3681 33.3403 27.5833 33.6666 26.6667 33.6666H3.33333ZM3.33333 30.3333H26.6667V13.6666H3.33333V30.3333Z" fill="#1D1B20"/>
</svg>
