<svg width="200" height="200" viewBox="0 0 200 200" fill="none" xmlns="http://www.w3.org/2000/svg">
<path d="M0 166.667V143.542C0 138.819 1.18056 134.444 3.54167 130.417C5.90278 126.389 9.16667 123.333 13.3333 121.25C15.2778 120.278 17.1528 119.375 18.9583 118.542C20.9028 117.708 22.9167 116.944 25 116.25V166.667H0ZM33.3333 108.333C26.3889 108.333 20.4861 105.903 15.625 101.042C10.7639 96.1805 8.33333 90.2777 8.33333 83.3333C8.33333 76.3888 10.7639 70.486 15.625 65.6249C20.4861 60.7638 26.3889 58.3333 33.3333 58.3333C40.2778 58.3333 46.1806 60.7638 51.0417 65.6249C55.9028 70.486 58.3333 76.3888 58.3333 83.3333C58.3333 90.2777 55.9028 96.1805 51.0417 101.042C46.1806 105.903 40.2778 108.333 33.3333 108.333ZM33.3333 91.6666C35.6944 91.6666 37.6389 90.9027 39.1667 89.3749C40.8333 87.7083 41.6667 85.6944 41.6667 83.3333C41.6667 80.9721 40.8333 79.0277 39.1667 77.4999C37.6389 75.8332 35.6944 74.9999 33.3333 74.9999C30.9722 74.9999 28.9583 75.8332 27.2917 77.4999C25.7639 79.0277 25 80.9721 25 83.3333C25 85.6944 25.7639 87.7083 27.2917 89.3749C28.9583 90.9027 30.9722 91.6666 33.3333 91.6666ZM33.3333 166.667V143.333C33.3333 138.611 34.5139 134.305 36.875 130.417C39.375 126.389 42.6389 123.333 46.6667 121.25C55.2778 116.944 64.0278 113.75 72.9167 111.667C81.8056 109.444 90.8333 108.333 100 108.333C109.167 108.333 118.194 109.444 127.083 111.667C135.972 113.75 144.722 116.944 153.333 121.25C157.361 123.333 160.556 126.389 162.917 130.417C165.417 134.305 166.667 138.611 166.667 143.333V166.667H33.3333ZM50 150H150V143.333C150 141.805 149.583 140.417 148.75 139.167C148.056 137.917 147.083 136.944 145.833 136.25C138.333 132.5 130.764 129.722 123.125 127.917C115.486 125.972 107.778 125 100 125C92.2222 125 84.5139 125.972 76.875 127.917C69.2361 129.722 61.6667 132.5 54.1667 136.25C52.9167 136.944 51.875 137.917 51.0417 139.167C50.3472 140.417 50 141.805 50 143.333V150ZM100 99.9999C90.8333 99.9999 82.9861 96.736 76.4583 90.2082C69.9306 83.6805 66.6667 75.8332 66.6667 66.6666C66.6667 57.4999 69.9306 49.6527 76.4583 43.1249C82.9861 36.5971 90.8333 33.3333 100 33.3333C109.167 33.3333 117.014 36.5971 123.542 43.1249C130.069 49.6527 133.333 57.4999 133.333 66.6666C133.333 75.8332 130.069 83.6805 123.542 90.2082C117.014 96.736 109.167 99.9999 100 99.9999ZM100 83.3333C104.583 83.3333 108.472 81.736 111.667 78.5416C115 75.2083 116.667 71.2499 116.667 66.6666C116.667 62.0833 115 58.1944 111.667 54.9999C108.472 51.6666 104.583 49.9999 100 49.9999C95.4167 49.9999 91.4583 51.6666 88.125 54.9999C84.9306 58.1944 83.3333 62.0833 83.3333 66.6666C83.3333 71.2499 84.9306 75.2083 88.125 78.5416C91.4583 81.736 95.4167 83.3333 100 83.3333ZM166.667 108.333C159.722 108.333 153.819 105.903 148.958 101.042C144.097 96.1805 141.667 90.2777 141.667 83.3333C141.667 76.3888 144.097 70.486 148.958 65.6249C153.819 60.7638 159.722 58.3333 166.667 58.3333C173.611 58.3333 179.514 60.7638 184.375 65.6249C189.236 70.486 191.667 76.3888 191.667 83.3333C191.667 90.2777 189.236 96.1805 184.375 101.042C179.514 105.903 173.611 108.333 166.667 108.333ZM166.667 91.6666C169.028 91.6666 170.972 90.9027 172.5 89.3749C174.167 87.7083 175 85.6944 175 83.3333C175 80.9721 174.167 79.0277 172.5 77.4999C170.972 75.8332 169.028 74.9999 166.667 74.9999C164.306 74.9999 162.292 75.8332 160.625 77.4999C159.097 79.0277 158.333 80.9721 158.333 83.3333C158.333 85.6944 159.097 87.7083 160.625 89.3749C162.292 90.9027 164.306 91.6666 166.667 91.6666ZM175 166.667V116.25C177.083 116.944 179.028 117.708 180.833 118.542C182.778 119.375 184.722 120.278 186.667 121.25C190.833 123.333 194.097 126.389 196.458 130.417C198.819 134.444 200 138.819 200 143.542V166.667H175Z" fill="#FEF7FF"/>
</svg>
