<svg width="106" height="106" viewBox="0 0 106 106" fill="none" xmlns="http://www.w3.org/2000/svg">
<path d="M37.0997 75.0832L52.9997 59.1833L68.8997 75.0832L75.083 68.8999L59.183 52.9999L75.083 37.0999L68.8997 30.9166L52.9997 46.8166L37.0997 30.9166L30.9163 37.0999L46.8163 52.9999L30.9163 68.8999L37.0997 75.0832ZM52.9997 97.1666C46.89 97.1666 41.1483 96.0072 35.7747 93.6885C30.4011 91.3697 25.7268 88.2228 21.7518 84.2478C17.7768 80.2728 14.6299 75.5985 12.3111 70.2249C9.99238 64.8513 8.83301 59.1096 8.83301 52.9999C8.83301 46.8902 9.99238 41.1485 12.3111 35.7749C14.6299 30.4013 17.7768 25.727 21.7518 21.752C25.7268 17.777 30.4011 14.6301 35.7747 12.3114C41.1483 9.99263 46.89 8.83325 52.9997 8.83325C59.1094 8.83325 64.8511 9.99263 70.2247 12.3114C75.5983 14.6301 80.2726 17.777 84.2476 21.752C88.2226 25.727 91.3695 30.4013 93.6882 35.7749C96.007 41.1485 97.1663 46.8902 97.1663 52.9999C97.1663 59.1096 96.007 64.8513 93.6882 70.2249C91.3695 75.5985 88.2226 80.2728 84.2476 84.2478C80.2726 88.2228 75.5983 91.3697 70.2247 93.6885C64.8511 96.0072 59.1094 97.1666 52.9997 97.1666ZM52.9997 88.3332C62.8636 88.3332 71.2184 84.9103 78.0643 78.0645C84.9101 71.2187 88.333 62.8638 88.333 52.9999C88.333 43.136 84.9101 34.7812 78.0643 27.9353C71.2184 21.0895 62.8636 17.6666 52.9997 17.6666C43.1358 17.6666 34.7809 21.0895 27.9351 27.9353C21.0893 34.7812 17.6663 43.136 17.6663 52.9999C17.6663 62.8638 21.0893 71.2187 27.9351 78.0645C34.7809 84.9103 43.1358 88.3332 52.9997 88.3332Z" fill="#1D1B20"/>
<path d="M37.0997 75.0832L52.9997 59.1833L68.8997 75.0832L75.083 68.8999L59.183 52.9999L75.083 37.0999L68.8997 30.9166L52.9997 46.8166L37.0997 30.9166L30.9163 37.0999L46.8163 52.9999L30.9163 68.8999L37.0997 75.0832ZM52.9997 97.1666C46.89 97.1666 41.1483 96.0072 35.7747 93.6885C30.4011 91.3697 25.7268 88.2228 21.7518 84.2478C17.7768 80.2728 14.6299 75.5985 12.3111 70.2249C9.99238 64.8513 8.83301 59.1096 8.83301 52.9999C8.83301 46.8902 9.99238 41.1485 12.3111 35.7749C14.6299 30.4013 17.7768 25.727 21.7518 21.752C25.7268 17.777 30.4011 14.6301 35.7747 12.3114C41.1483 9.99263 46.89 8.83325 52.9997 8.83325C59.1094 8.83325 64.8511 9.99263 70.2247 12.3114C75.5983 14.6301 80.2726 17.777 84.2476 21.752C88.2226 25.727 91.3695 30.4013 93.6882 35.7749C96.007 41.1485 97.1663 46.8902 97.1663 52.9999C97.1663 59.1096 96.007 64.8513 93.6882 70.2249C91.3695 75.5985 88.2226 80.2728 84.2476 84.2478C80.2726 88.2228 75.5983 91.3697 70.2247 93.6885C64.8511 96.0072 59.1094 97.1666 52.9997 97.1666ZM52.9997 88.3332C62.8636 88.3332 71.2184 84.9103 78.0643 78.0645C84.9101 71.2187 88.333 62.8638 88.333 52.9999C88.333 43.136 84.9101 34.7812 78.0643 27.9353C71.2184 21.0895 62.8636 17.6666 52.9997 17.6666C43.1358 17.6666 34.7809 21.0895 27.9351 27.9353C21.0893 34.7812 17.6663 43.136 17.6663 52.9999C17.6663 62.8638 21.0893 71.2187 27.9351 78.0645C34.7809 84.9103 43.1358 88.3332 52.9997 88.3332Z" fill="#5F659E" fill-opacity="0.2"/>
</svg>
